<mxfile host="app.diagrams.net" modified="2024-05-08T04:48:21.992Z" agent="Mozilla/5.0 (Windows NT 10.0; Win64; x64) AppleWebKit/537.36 (KHTML, like Gecko) Chrome/124.0.0.0 Safari/537.36 Edg/124.0.0.0" version="24.3.1" etag="2n0mKc-ChjeLjHl5PpB8" type="github">
  <diagram name="Page-1" id="VB1yr-grKlqSeqhoedwj">
    <mxGraphModel>
      <root>
        <mxCell id="0" />
        <mxCell id="1" parent="0" />
      </root>
    </mxGraphModel>
  </diagram>
</mxfile>
